# xmcd CD database file
#
# Track frame offsets:
#	151
#	9634
#	22492
#	33003
#	45438
#	59652
#	71348
#	86346
#	97739
#	108741
#	123357
#	134755
#	146151
#	160732
#
# Disc length: 2318 seconds
#
# Revision: 0
# Processed by: cddbd v1.4PL0 Copyright (c) Steve Scherf et al.
# Submitted via: CDex 1.40Release
#
DISCID=bf090c0e
DTITLE=Frankie Laine - Frankie Laine
DYEAR=1999
DGENRE=Country
TTITLE0=Rawhide
TTITLE1=Moonlight Gambler
TTITLE2=I Believe
TTITLE3=High Noon
TTITLE4=Don't Fence Me In
TTITLE5=Strange Lady In Town
TTITLE6=Jezebel
TTITLE7=Mule Train
TTITLE8=Humming Bird
TTITLE9=There Must Be A Reason
TTITLE10=Love Is A Golden Ring
TTITLE11=Rose Rose I Love You
TTITLE12=Jealosy
TTITLE13=Answer Me
EXTD=YEAR: 1999 ID3G: 2
EXTT0=
EXTT1=
EXTT2=
EXTT3=
EXTT4=
EXTT5=
EXTT6=
EXTT7=
EXTT8=
EXTT9=
EXTT10=
EXTT11=
EXTT12=
EXTT13=
PLAYORDER=
